<svg width="41" height="18" viewBox="0 0 41 18" fill="none" xmlns="http://www.w3.org/2000/svg">
<path d="M0.192528 9V8.88L0.372528 8.82C0.644528 8.732 0.780528 8.536 0.780528 8.232V1.812C0.780528 1.652 0.748528 1.532 0.684528 1.452C0.620528 1.372 0.508528 1.308 0.348528 1.26L0.192528 1.224V1.104L2.38853 0.588001L2.53253 0.696001L2.49653 2.376V8.232C2.49653 8.552 2.62853 8.752 2.89253 8.832L3.06053 8.88V9H0.192528ZM4.64453 9L2.50853 6L4.72853 3.948C4.83253 3.852 4.89253 3.752 4.90853 3.648C4.93253 3.536 4.86453 3.456 4.70453 3.408L4.50053 3.348V3.228H6.28853V3.348L5.92853 3.444C5.75253 3.5 5.60853 3.568 5.49653 3.648C5.39253 3.72 5.26453 3.824 5.11253 3.96L3.76853 5.22L5.91653 8.208C6.04453 8.384 6.16453 8.52 6.27653 8.616C6.38853 8.712 6.53253 8.792 6.70853 8.856L6.75653 8.88V9H4.64453Z" fill="white"/>
<path d="M8.5929 2.424C8.3209 2.424 8.0889 2.34 7.8969 2.172C7.7129 1.996 7.6209 1.776 7.6209 1.512C7.6209 1.24 7.7129 1.02 7.8969 0.852001C8.0889 0.684001 8.3209 0.600001 8.5929 0.600001C8.8649 0.600001 9.0929 0.684001 9.2769 0.852001C9.4609 1.02 9.5529 1.24 9.5529 1.512C9.5529 1.776 9.4609 1.996 9.2769 2.172C9.0929 2.34 8.8649 2.424 8.5929 2.424ZM7.1769 9V8.88L7.3449 8.832C7.5049 8.784 7.6129 8.712 7.6689 8.616C7.7329 8.52 7.7649 8.392 7.7649 8.232V4.476C7.7649 4.308 7.7329 4.184 7.6689 4.104C7.6129 4.016 7.5049 3.956 7.3449 3.924L7.1769 3.888V3.768L9.3729 3.06L9.4929 3.18L9.4569 4.884V8.244C9.4569 8.404 9.4849 8.532 9.5409 8.628C9.6049 8.724 9.7129 8.796 9.8649 8.844L9.9849 8.88V9H7.1769Z" fill="white"/>
<path d="M12.7962 9.18C12.2842 9.18 11.8842 9.052 11.5962 8.796C11.3162 8.54 11.1762 8.132 11.1762 7.572V3.468H10.3482V3.348L10.6362 3.3C10.8842 3.244 11.0962 3.164 11.2722 3.06C11.4562 2.956 11.6362 2.816 11.8122 2.64L12.7962 1.548H12.9162L12.8802 3.228H14.2242V3.468H12.8682V7.788C12.8682 8.068 12.9282 8.28 13.0482 8.424C13.1762 8.568 13.3362 8.64 13.5282 8.64C13.6962 8.64 13.8442 8.6 13.9722 8.52C14.1002 8.432 14.2282 8.316 14.3562 8.172L14.4762 8.292C14.3162 8.564 14.0962 8.78 13.8162 8.94C13.5362 9.1 13.1962 9.18 12.7962 9.18Z" fill="white"/>
<path d="M17.793 9.18C17.249 9.18 16.753 9.064 16.305 8.832C15.865 8.592 15.513 8.248 15.249 7.8C14.993 7.344 14.865 6.788 14.865 6.132C14.865 5.484 15.005 4.932 15.285 4.476C15.573 4.012 15.953 3.66 16.425 3.42C16.905 3.172 17.429 3.048 17.997 3.048C18.461 3.048 18.853 3.124 19.173 3.276C19.493 3.428 19.737 3.628 19.905 3.876C20.073 4.116 20.157 4.368 20.157 4.632C20.157 4.856 20.089 5.032 19.953 5.16C19.817 5.28 19.641 5.34 19.425 5.34C19.193 5.34 19.005 5.256 18.861 5.088C18.717 4.92 18.633 4.7 18.609 4.428C18.601 4.252 18.605 4.104 18.621 3.984C18.637 3.856 18.637 3.728 18.621 3.6C18.589 3.464 18.537 3.376 18.465 3.336C18.401 3.288 18.309 3.264 18.189 3.264C17.701 3.264 17.321 3.476 17.049 3.9C16.785 4.324 16.653 5 16.653 5.928C16.653 6.736 16.801 7.356 17.097 7.788C17.401 8.212 17.865 8.424 18.489 8.424C18.865 8.424 19.169 8.356 19.401 8.22C19.633 8.084 19.857 7.88 20.073 7.608L20.193 7.704C19.993 8.176 19.685 8.54 19.269 8.796C18.853 9.052 18.361 9.18 17.793 9.18Z" fill="white"/>
<path d="M20.5248 9V8.88L20.6688 8.832C20.9568 8.736 21.1008 8.536 21.1008 8.232V1.824C21.1008 1.656 21.0728 1.532 21.0168 1.452C20.9608 1.372 20.8528 1.312 20.6928 1.272L20.5128 1.224V1.104L22.6248 0.588001L22.8168 0.696001L22.7688 2.388V3.888C23.0488 3.656 23.3488 3.46 23.6688 3.3C23.9968 3.132 24.3568 3.048 24.7488 3.048C25.2688 3.048 25.6808 3.196 25.9848 3.492C26.2968 3.788 26.4528 4.244 26.4528 4.86V8.244C26.4528 8.404 26.4848 8.532 26.5488 8.628C26.6128 8.724 26.7248 8.796 26.8848 8.844L26.9808 8.88V9H24.1728V8.88L24.3168 8.844C24.6048 8.748 24.7488 8.544 24.7488 8.232V4.464C24.7488 4.144 24.6928 3.924 24.5808 3.804C24.4768 3.684 24.2888 3.624 24.0168 3.624C23.8408 3.624 23.6488 3.66 23.4408 3.732C23.2328 3.796 23.0208 3.912 22.8048 4.08V8.256C22.8048 8.568 22.9488 8.768 23.2368 8.856L23.3328 8.88V9H20.5248Z" fill="white"/>
<path d="M30.4618 3.048C30.9818 3.048 31.4258 3.156 31.7938 3.372C32.1618 3.58 32.4418 3.868 32.6338 4.236C32.8338 4.596 32.9338 5.008 32.9338 5.472C32.9338 5.56 32.9298 5.652 32.9218 5.748C32.9138 5.836 32.8978 5.916 32.8738 5.988H29.2978C29.3058 6.852 29.4578 7.476 29.7538 7.86C30.0578 8.236 30.5058 8.424 31.0978 8.424C31.4978 8.424 31.8218 8.36 32.0698 8.232C32.3178 8.104 32.5498 7.916 32.7658 7.668L32.8858 7.776C32.6378 8.216 32.3058 8.56 31.8898 8.808C31.4818 9.056 30.9898 9.18 30.4138 9.18C29.8458 9.18 29.3418 9.06 28.9018 8.82C28.4618 8.572 28.1178 8.22 27.8698 7.764C27.6218 7.308 27.4978 6.764 27.4978 6.132C27.4978 5.476 27.6418 4.92 27.9298 4.464C28.2178 4 28.5858 3.648 29.0338 3.408C29.4898 3.168 29.9658 3.048 30.4618 3.048ZM30.4258 3.288C30.1938 3.288 29.9938 3.36 29.8258 3.504C29.6658 3.64 29.5378 3.888 29.4418 4.248C29.3538 4.6 29.3058 5.1 29.2978 5.748H31.3498C31.4298 4.876 31.3978 4.248 31.2538 3.864C31.1098 3.48 30.8338 3.288 30.4258 3.288Z" fill="white"/>
<path d="M33.5318 9V8.88L33.6998 8.832C33.9798 8.752 34.1198 8.556 34.1198 8.244V4.488C34.1198 4.312 34.0918 4.184 34.0358 4.104C33.9798 4.016 33.8718 3.956 33.7118 3.924L33.5318 3.876V3.756L35.5838 3.06L35.7038 3.18L35.7998 3.9C36.0798 3.652 36.3958 3.448 36.7478 3.288C37.0998 3.128 37.4478 3.048 37.7918 3.048C38.3198 3.048 38.7238 3.192 39.0038 3.48C39.2918 3.768 39.4358 4.208 39.4358 4.8V8.256C39.4358 8.568 39.5878 8.764 39.8918 8.844L39.9998 8.88V9H37.1678V8.88L37.3238 8.832C37.6038 8.744 37.7438 8.548 37.7438 8.244V4.416C37.7438 3.904 37.4878 3.648 36.9758 3.648C36.6238 3.648 36.2398 3.824 35.8238 4.176V8.256C35.8238 8.568 35.9638 8.764 36.2438 8.844L36.3518 8.88V9H33.5318Z" fill="white"/>
<path d="M16.7 17.036L14.852 11.96C14.764 11.704 14.588 11.524 14.324 11.42L14.12 11.348V11.228H17.06V11.348L16.88 11.396C16.568 11.492 16.464 11.684 16.568 11.972L17.684 15.368L18.68 12.728L18.452 12.044C18.396 11.868 18.336 11.736 18.272 11.648C18.216 11.552 18.14 11.484 18.044 11.444L17.84 11.348V11.228H20.324V11.348L20.156 11.42C20.036 11.468 19.964 11.532 19.94 11.612C19.916 11.692 19.932 11.812 19.988 11.972L21.092 15.308L22.232 11.996C22.344 11.692 22.284 11.5 22.052 11.42L21.788 11.348V11.228H23.228V11.348L22.94 11.432C22.804 11.472 22.704 11.536 22.64 11.624C22.584 11.704 22.532 11.816 22.484 11.96L20.756 17.036H20.144L18.812 13.112L17.396 17.036H16.7Z" fill="white"/>
<path d="M25.0858 17.18C24.6217 17.18 24.2297 17.048 23.9097 16.784C23.5977 16.52 23.4417 16.14 23.4417 15.644C23.4417 15.268 23.6337 14.924 24.0177 14.612C24.4018 14.292 25.0058 14.052 25.8298 13.892C25.9578 13.868 26.1017 13.844 26.2617 13.82C26.4217 13.788 26.5898 13.756 26.7658 13.724V12.776C26.7658 12.232 26.6978 11.852 26.5618 11.636C26.4338 11.412 26.2298 11.3 25.9498 11.3C25.7578 11.3 25.6057 11.364 25.4937 11.492C25.3818 11.612 25.3097 11.824 25.2778 12.128L25.2537 12.26C25.2377 12.604 25.1538 12.856 25.0018 13.016C24.8498 13.176 24.6618 13.256 24.4377 13.256C24.2297 13.256 24.0577 13.192 23.9217 13.064C23.7857 12.936 23.7178 12.764 23.7178 12.548C23.7178 12.22 23.8297 11.944 24.0537 11.72C24.2857 11.496 24.5898 11.328 24.9657 11.216C25.3417 11.104 25.7498 11.048 26.1898 11.048C26.9018 11.048 27.4497 11.224 27.8337 11.576C28.2257 11.92 28.4218 12.484 28.4218 13.268V15.92C28.4218 16.28 28.5898 16.46 28.9258 16.46H29.1898L29.2978 16.556C29.1458 16.748 28.9778 16.896 28.7938 17C28.6178 17.104 28.3657 17.156 28.0378 17.156C27.6858 17.156 27.4058 17.076 27.1978 16.916C26.9977 16.748 26.8657 16.528 26.8018 16.256C26.5618 16.512 26.3138 16.732 26.0578 16.916C25.8098 17.092 25.4858 17.18 25.0858 17.18ZM25.8178 16.448C25.9778 16.448 26.1257 16.412 26.2617 16.34C26.4058 16.26 26.5738 16.14 26.7658 15.98V13.964C26.6858 13.98 26.6057 13.996 26.5257 14.012C26.4457 14.028 26.3538 14.044 26.2498 14.06C25.8818 14.156 25.5858 14.32 25.3617 14.552C25.1458 14.776 25.0378 15.08 25.0378 15.464C25.0378 15.792 25.1138 16.04 25.2658 16.208C25.4178 16.368 25.6018 16.448 25.8178 16.448Z" fill="white"/>
<path d="M29.5212 17V16.88L29.7013 16.832C29.8612 16.784 29.9692 16.712 30.0252 16.616C30.0892 16.52 30.1213 16.396 30.1213 16.244V12.488C30.1213 12.312 30.0892 12.184 30.0252 12.104C29.9692 12.016 29.8612 11.956 29.7013 11.924L29.5212 11.876V11.756L31.5853 11.06L31.7052 11.18L31.8132 12.212V12.308C31.9252 12.084 32.0693 11.88 32.2453 11.696C32.4293 11.504 32.6292 11.348 32.8452 11.228C33.0692 11.108 33.2892 11.048 33.5052 11.048C33.8092 11.048 34.0413 11.132 34.2013 11.3C34.3613 11.468 34.4412 11.68 34.4412 11.936C34.4412 12.208 34.3613 12.42 34.2013 12.572C34.0493 12.716 33.8652 12.788 33.6493 12.788C33.3133 12.788 33.0173 12.62 32.7612 12.284L32.7373 12.26C32.6572 12.148 32.5653 12.088 32.4613 12.08C32.3573 12.064 32.2612 12.112 32.1733 12.224C32.0933 12.296 32.0252 12.384 31.9692 12.488C31.9212 12.584 31.8733 12.696 31.8253 12.824V16.172C31.8253 16.492 31.9653 16.692 32.2453 16.772L32.6292 16.88V17H29.5212Z" fill="white"/>
<path d="M37.6426 11.048C38.1626 11.048 38.6066 11.156 38.9746 11.372C39.3426 11.58 39.6226 11.868 39.8146 12.236C40.0146 12.596 40.1146 13.008 40.1146 13.472C40.1146 13.56 40.1106 13.652 40.1026 13.748C40.0946 13.836 40.0786 13.916 40.0546 13.988H36.4786C36.4866 14.852 36.6386 15.476 36.9346 15.86C37.2386 16.236 37.6866 16.424 38.2786 16.424C38.6786 16.424 39.0026 16.36 39.2506 16.232C39.4986 16.104 39.7306 15.916 39.9466 15.668L40.0666 15.776C39.8186 16.216 39.4866 16.56 39.0706 16.808C38.6626 17.056 38.1706 17.18 37.5946 17.18C37.0266 17.18 36.5226 17.06 36.0826 16.82C35.6426 16.572 35.2986 16.22 35.0506 15.764C34.8026 15.308 34.6786 14.764 34.6786 14.132C34.6786 13.476 34.8226 12.92 35.1106 12.464C35.3986 12 35.7666 11.648 36.2146 11.408C36.6706 11.168 37.1466 11.048 37.6426 11.048ZM37.6066 11.288C37.3746 11.288 37.1746 11.36 37.0066 11.504C36.8466 11.64 36.7186 11.888 36.6226 12.248C36.5346 12.6 36.4866 13.1 36.4786 13.748H38.5306C38.6106 12.876 38.5786 12.248 38.4346 11.864C38.2906 11.48 38.0146 11.288 37.6066 11.288Z" fill="white"/>
<path d="M1.4 12.7422C1.01062 12.8209 0.483436 13.6172 0.575311 14.1991C0.667186 14.7809 0.942812 15.5116 1.61875 15.8638C2.29469 16.2159 3.3075 16.4719 4.28312 16.1394C5.25875 15.8069 6.08562 15.0259 6.39625 14.7394C6.70687 14.4528 7.96906 14.4988 7.96906 14.4988C8.015 14.7963 8.36938 14.8072 8.94469 14.7963C9.52 14.7853 12.1713 14.7503 12.7116 14.7503C13.2519 14.7503 13.3678 14.6366 13.3984 14.5097C13.4291 14.3828 13.3984 14.0394 13.4334 13.7528C13.4684 13.4663 13.1119 13.5341 12.39 13.4991C11.6681 13.4641 8.81781 13.4881 8.39344 13.4881C7.96906 13.4881 7.98 13.7813 7.98 13.7813C7.69845 13.7893 7.417 13.7621 7.14219 13.7003C6.8775 13.6084 6.62594 13.5166 5.845 12.9194C5.06406 12.3222 4.24812 12.0138 3.00125 11.7491C1.75437 11.4844 1.4 12.7422 1.4 12.7422ZM1.99719 12.8209C2.62175 12.78 3.24894 12.8308 3.85875 12.9719C4.76437 13.1906 5.29375 13.7988 5.28281 14.0394C5.27187 14.28 5.16687 14.315 4.86937 14.5447C4.57187 14.7744 4.0425 14.8531 3.28125 14.8422C2.52 14.8313 2.13281 14.5666 2.12187 14.4528C2.11094 14.3391 2.12187 14.0153 2.16781 14.0722C2.28156 14.2691 2.64906 14.4178 3.29219 14.5666C3.50069 14.6249 3.72237 14.6153 3.92499 14.5389C4.1276 14.4626 4.30058 14.3236 4.41875 14.1422C4.5675 13.9366 4.65937 13.615 4.01625 13.2803C3.37312 12.9456 2.3625 13.2694 2.18969 13.4072C2.01687 13.545 1.90312 13.2344 1.89219 13.1097C1.88125 12.985 1.92937 12.8341 1.99719 12.8209ZM2.35375 13.7813C2.44562 13.5625 3.38844 13.5056 3.76687 13.6216C4.14531 13.7375 4.22625 13.8731 4.01844 14.0788C3.81062 14.2844 3.48031 14.2406 3.05375 14.1378C2.78948 14.0932 2.54521 13.9688 2.35375 13.7813ZM8.26 14.3216C8.21406 14.4813 8.11344 14.2209 8.14625 14.1706C8.3125 13.9366 8.3125 14.1531 8.26656 14.315L8.26 14.3216ZM12.9063 13.7813C13.0769 13.7813 13.125 13.8272 13.1119 13.9541C13.0988 14.0809 12.3769 14.035 12.0334 14.035C11.69 14.035 8.92063 14.1028 8.78281 14.1028C8.645 14.1028 8.59906 14.1028 8.59906 13.9759C8.59906 13.7003 9.0825 13.8972 9.75844 13.9081C10.4344 13.9191 12.7225 13.7813 12.9063 13.7813ZM3.16969 12.1975C3.80355 12.2565 4.41967 12.4393 4.98312 12.7356C5.37952 12.9438 5.74718 13.2027 6.07687 13.5056C6.31767 13.7201 6.59876 13.8844 6.90375 13.9891C7.0525 13.9891 7.22531 13.9191 7.16625 14.0919C7.14219 14.1641 6.2475 14.2297 6.04187 14.5294C5.53078 15.1158 4.85939 15.5401 4.11031 15.75C3.26156 15.9447 2.21594 15.9797 1.66469 15.4175C1.11344 14.8553 0.942811 14.4747 0.975624 14C1.00844 13.5253 1.38906 13.0003 1.45906 13.1731C1.51757 13.3474 1.59075 13.5165 1.67781 13.6784C1.73687 13.7463 1.83969 13.6784 1.75875 13.8731C1.70639 14.0224 1.68844 14.1816 1.70624 14.3388C1.72405 14.496 1.77714 14.6471 1.86156 14.7809C2.06937 15.0566 2.90719 15.2513 3.61156 15.2053C4.31594 15.1594 5.14281 14.7919 5.46 14.3784C5.77719 13.965 5.65687 13.5866 5.11656 13.23C4.6348 12.9133 4.09742 12.6906 3.53281 12.5738C3.17291 12.4962 2.80695 12.4501 2.43906 12.4359C2.25531 12.4359 2.13937 12.4688 2.1525 12.4119C2.16562 12.355 2.48062 12.0991 3.15875 12.1909L3.16969 12.1975Z" fill="white"/>
</svg>